<svg xmlns="http://www.w3.org/2000/svg" width="16" height="16" viewBox="0 0 24 24"><g fill="#fff"><path d="m12 1.5 3.214 2.74 4.21.335.337 4.21L22.5 12l-2.74 3.214-.335 4.21-4.21.337L12 22.5l-3.215-2.74-4.21-.335-.336-4.21L1.5 12l2.74-3.215.335-4.21 4.21-.336z"/><path stroke="currentColor" stroke-linecap="square" stroke-width="2" d="m12 1.5 3.214 2.74 4.21.335.337 4.21L22.5 12l-2.74 3.214-.335 4.21-4.21.337L12 22.5l-3.215-2.74-4.21-.335-.336-4.21L1.5 12l2.74-3.215.335-4.21 4.21-.336z"/><path stroke="currentColor" stroke-linecap="square" stroke-width="2" d="m8 12 3 3 5.5-5.5"/></g></svg>